<svg xmlns="http://www.w3.org/2000/svg" xmlns:xlink="http://www.w3.org/1999/xlink" xmlns:lucid="lucid" width="782" height="522"><g transform="translate(-439 81)" lucid:page-tab-id="0_0"><path d="M0-500h1500V500H0z" fill="#fff"/><path d="M617.7-74a6 6 0 0 1 6-6H1034a6 6 0 0 1 6 6v508a6 6 0 0 1-6 6H623.7a6 6 0 0 1-6-6z" stroke="#3a414a" stroke-width="2" fill-opacity="0"/><use xlink:href="#a" transform="matrix(1,0,0,1,625.7089683485422,-72) translate(140.71788194444446 21.52777777777778)"/><use xlink:href="#b" transform="matrix(1,0,0,1,625.7089683485422,-72) translate(213.93836805555557 21.52777777777778)"/><path d="M514.75 4.75c0 13.67-11.08 24.75-24.75 24.75s-24.75-11.08-24.75-24.75S476.33-20 490-20s24.75 11.08 24.75 24.75z" stroke="#3a414a" stroke-width="2" fill="#fff"/><path d="M490 29.5v63.3a20.74 20.74 0 0 0 3.2 11.07L540 178m-50-79.2L440 178m0-123.75h100" stroke="#3a414a" stroke-width="2" fill="none"/><path d="M440-14a6 6 0 0 1 6-6h88a6 6 0 0 1 6 6v208a6 6 0 0 1-6 6h-88a6 6 0 0 1-6-6z" fill="none"/><use xlink:href="#c" transform="matrix(1,0,0,1,360,178) translate(105.20616319444444 21.52777777777778)"/><path d="M767.25 10c0 16.57-19.53 30-43.63 30S680 26.57 680 10s19.53-30 43.62-30c24.1 0 43.63 13.43 43.63 30z" stroke="#3a414a" stroke-width="2" fill="#fff"/><use xlink:href="#d" transform="matrix(1,0,0,1,680,-20) translate(15.684774492234157 35.95738549377713)"/><use xlink:href="#e" transform="matrix(1,0,0,1,680,-20) translate(57.59118152741005 35.95738549377713)"/><path d="M1194.75 93c0 13.68-11.08 24.76-24.75 24.76s-24.75-11.08-24.75-24.75c0-13.66 11.08-24.74 24.75-24.74s24.75 11.08 24.75 24.75z" stroke="#3a414a" stroke-width="2" fill="#fff"/><path d="M1170 117.76v63.3a20.74 20.74 0 0 0 3.2 11.07l46.8 74.13m-50-79.2l-50 79.2m0-123.75h100" stroke="#3a414a" stroke-width="2" fill="none"/><path d="M1120 74.26a6 6 0 0 1 6-6h88a6 6 0 0 1 6 6v208a6 6 0 0 1-6 6h-88a6 6 0 0 1-6-6z" fill="none"/><use xlink:href="#f" transform="matrix(1,0,0,1,1040,266.2569118063034) translate(103.828125 21.52777777777778)"/><path d="M767.25 250c0 16.57-19.53 30-43.63 30S680 266.57 680 250s19.53-30 43.62-30c24.1 0 43.63 13.43 43.63 30z" stroke="#3a414a" stroke-width="2" fill="#fff"/><use xlink:href="#g" transform="matrix(1,0,0,1,680,220) translate(27.95226444149175 26.861912846632713)"/><use xlink:href="#h" transform="matrix(1,0,0,1,680,220) translate(18.686943360256056 41.481120512536606)"/><path d="M767.25 90c0 16.57-19.53 30-43.63 30S680 106.57 680 90s19.53-30 43.62-30c24.1 0 43.63 13.43 43.63 30z" stroke="#3a414a" stroke-width="2" fill="#fff"/><use xlink:href="#i" transform="matrix(1,0,0,1,680,60) translate(26.19123397810491 26.861912846632713)"/><use xlink:href="#j" transform="matrix(1,0,0,1,680,60) translate(20.9553393842834 41.481120512536606)"/><path d="M767.25 170c0 16.57-19.53 30-43.63 30S680 186.57 680 170s19.53-30 43.62-30c24.1 0 43.63 13.43 43.63 30z" stroke="#3a414a" stroke-width="2" fill="#fff"/><use xlink:href="#k" transform="matrix(1,0,0,1,680,140) translate(19.666276884283462 26.861912846632713)"/><use xlink:href="#l" transform="matrix(1,0,0,1,680,140) translate(27.23841289686927 41.481120512536606)"/><path d="M490.5 100.67h88a6 6 0 0 1 6 6V244a6 6 0 0 0 6 6h88M490.5 100.67H487" stroke="#3a414a" fill="none"/><path d="M679 250l.02.47h-.53v-.94h.53z" stroke="#3a414a" stroke-width=".05" fill="#3a414a"/><path d="M490.5 100.67h88.66a5.34 5.34 0 0 0 5.34-5.33 5.34 5.34 0 0 1 5.34-5.34h88.66M490.5 100.67H487" stroke="#3a414a" fill="none"/><path d="M679 90l.02.47h-.53v-.94h.53z" stroke="#3a414a" stroke-width=".05" fill="#3a414a"/><path d="M490.5 100.67h88a6 6 0 0 1 6 6V164a6 6 0 0 0 6 6h88M490.5 100.67H487" stroke="#3a414a" fill="none"/><path d="M679 170l.02.47h-.53v-.94h.53z" stroke="#3a414a" stroke-width=".05" fill="#3a414a"/><path d="M490.5 100.67h88.48a6 6 0 0 0 6-6V22.35a6 6 0 0 1 6-6h88.47M490.5 100.67H487" stroke="#3a414a" fill="none"/><path d="M680.07 16.8v.03h-.63v-.95h.4z" stroke="#3a414a" stroke-width=".05" fill="#3a414a"/><path d="M1169.5 188.9l-400.75-18.88M1169.5 188.9l3.5.17" stroke="#3a414a" fill="none"/><path d="M768.78 169.55l-.04.95-.52-.03.03-.46-.02-.48z" stroke="#3a414a" stroke-width=".05" fill="#3a414a"/><path d="M1169.52 188.8l-400.8-98.68M1169.5 188.8l3.4.85" stroke="#3a414a" fill="none"/><path d="M768.86 89.66l-.23.92-.4-.1.02-.47-.02-.5zM1169.5 189.4h-43.48l-.88.07-.85.2-.8.34-.75.46-.66.56-.57.66-.45.74-.33.8-.2.85-.08.88v49.07l-.07 1-.24.98-.4.94-.52.87-.66.78-.77.66-.86.53-.94.4-1 .23-.98.07H768.75v-.94h345.23l.88-.07.85-.2.8-.34.75-.45.66-.56.57-.65.45-.74.33-.8.2-.84.08-.88V194.9l.07-.98.24-1 .4-.93.52-.88.66-.77.77-.66.86-.54.94-.4 1-.23.98-.07h43.52z" stroke="#3a414a" stroke-width=".05" fill="#3a414a"/><path d="M1173 189.4h-3.5v-.94h3.5z" stroke="#3a414a" stroke-width=".05" fill="#3a414a"/><path d="M768.76 250.47h-.54l.03-.46-.02-.47h.53z" fill="#3a414a"/><path stroke="#3a414a" stroke-width=".05" fill="#3a414a"/><path d="M954.5 223.12c0 12.77-15.06 23.13-33.63 23.13s-33.62-10.36-33.62-23.13S902.3 200 920.87 200c18.57 0 33.63 10.35 33.63 23.12z" stroke="#3a414a" stroke-width="2" fill="#fff"/><use xlink:href="#m" transform="matrix(1,0,0,1,887.2480992009259,200) translate(12.60221523991984 28.053865498144408)"/><path d="M972 4.76c0 13.67-16.12 24.75-36 24.75s-36-11.07-36-24.74C900-8.92 916.12-20 936-20s36 11.08 36 24.76z" stroke="#3a414a" stroke-width="2" fill="#fff"/><use xlink:href="#n" transform="matrix(1,0,0,1,900,-20) translate(20.720377415982583 21.98007476779589)"/><use xlink:href="#o" transform="matrix(1,0,0,1,900,-20) translate(23.290185883724494 35.718986058118475)"/><path d="M972 64.76c0 13.67-16.12 24.75-36 24.75s-36-11.07-36-24.74C900 51.08 916.12 40 936 40s36 11.08 36 24.76z" stroke="#3a414a" stroke-width="2" fill="#fff"/><use xlink:href="#p" transform="matrix(1,0,0,1,900,40) translate(19.07370402888581 21.98007476779589)"/><use xlink:href="#o" transform="matrix(1,0,0,1,900,40) translate(23.290185883724494 35.718986058118475)"/><path d="M696.5 374.27c0 13.67-16.13 24.75-36 24.75-19.9 0-36-11.08-36-24.75s16.1-24.76 36-24.76c19.87 0 36 11.1 36 24.77z" stroke="#3a414a" stroke-width="2" fill="#fff"/><use xlink:href="#q" transform="matrix(1,0,0,1,624.490151546456,349.5124965785839) translate(17.490698563477793 22.661893652964363)"/><use xlink:href="#r" transform="matrix(1,0,0,1,624.490151546456,349.5124965785839) translate(35.15396227918852 22.661893652964363)"/><use xlink:href="#s" transform="matrix(1,0,0,1,624.490151546456,349.5124965785839) translate(20.15454675549775 33.282997144236184)"/><path d="M812 374.27c0 13.67-16.12 24.75-36 24.75s-36-11.08-36-24.75 16.12-24.76 36-24.76 36 11.1 36 24.77z" stroke="#3a414a" stroke-width="2" fill="#fff"/><use xlink:href="#q" transform="matrix(1,0,0,1,740,349.51249657858386) translate(17.490698563477793 22.661893652964363)"/><use xlink:href="#r" transform="matrix(1,0,0,1,740,349.51249657858386) translate(35.15396227918852 22.661893652964363)"/><use xlink:href="#t" transform="matrix(1,0,0,1,740,349.51249657858386) translate(14.760414897642395 33.282997144236184)"/><path d="M773.92 9.23l-4.8.12-.02-.95 4.8-.12zm14.38-.35l-9.6.23v-.94l9.57-.23zm14.38-.36l-9.6.24V7.8l9.57-.23zm71.9-1.77l-9.6.24v-.96l9.57-.24zm14.37-.36l-9.58.23-.03-.95 9.6-.24zm9.6-.24l-4.8.12-.03-.96 4.8-.1z" stroke="#3a414a" stroke-width=".05" fill="#3a414a"/><path d="M899.02 5.57l.06.57-.55.02-.03-.95h.5z" fill="#3a414a"/><path stroke="#3a414a" stroke-width=".05" fill="#3a414a"/><path d="M786.52-1.15l-16.37 10L787 18.03l-.46.83-18.3-9.96 17.78-10.86z" stroke="#3a414a" stroke-width=".05" fill="#3a414a"/><use xlink:href="#u" transform="matrix(1,0,0,1,806.5961269765036,1.906569805847921) translate(0 8.61111111111111)"/><path d="M898.3 64.02l-.3.9-4.9-1.6.3-.9zm-9.8-3.22l-.3.9-9.8-3.23.3-.9zm-14.7-4.84l-.3.9-9.8-3.22.3-.9zm-14.7-4.84l-.3.9-9.78-3.22.22-.65h.84zm-44.06-14.5l-.26.77h-.4l-9.43-3.1.3-.9zm-14.7-4.85l-.3.9-9.78-3.22.3-.9zm-14.68-4.84l-.3.9-9.8-3.22.3-.9zm-14.7-4.83l-.3.9-4.88-1.6.3-.9z" stroke="#3a414a" stroke-width=".05" fill="#3a414a"/><path d="M766.1 20.5l-.3.9-.6-.2.5-.84z" fill="#3a414a"/><path stroke="#3a414a" stroke-width=".05" fill="#3a414a"/><path d="M898.95 64.74L878.57 69l-.2-.94 18.78-3.9-12.78-14.32.7-.63z" stroke="#3a414a" stroke-width=".05" fill="#3a414a"/><use xlink:href="#v" transform="matrix(1,0,0,1,806.1094330404203,37.39060137834381) translate(0 8.61111111111111)"/><path d="M895.83 205.36l-.14.94-4.95-.74.14-.94zm-9.87-1.48l-.14.94-9.87-1.48.14-.94zm-14.8-2.22l-.15.94-9.86-1.48.14-.94zm-68.84-10.32v.96l-.4-.06.15-.94zm-5.2-.78l-.13.94-9.88-1.47.14-.94zm-14.8-2.22l-.13.94-9.88-1.47.14-.93zm-14.8-2.2l-.13.93-4.95-.75.14-.93z" stroke="#3a414a" stroke-width=".05" fill="#3a414a"/><path d="M762.6 185.4l-.14.93-.82-.13.77-.83z" fill="#3a414a"/><path stroke="#3a414a" stroke-width=".05" fill="#3a414a"/><path d="M896.6 205.96l-19.37 7.62-.35-.88 17.85-7.02-15-11.95.6-.74z" stroke="#3a414a" stroke-width=".05" fill="#3a414a"/><use xlink:href="#u" transform="matrix(1,0,0,1,802.3208905441246,190.4960808190556) translate(0 8.61111111111111)"/><path d="M772.08 241.3l-4.93.75-.15-.94 4.93-.75zm14.78-2.3l-9.86 1.53-.14-.94 9.86-1.54zm12.53-1.94l-7.6 1.18-.16-.94 7.75-1.2zm61.38-9.5l-7.35 1.13v-.97l7.2-1.12zm14.8-2.3l-9.87 1.53-.14-.95 9.86-1.53zm9.84-1.53l-4.93.77-.15-.94 4.93-.77z" stroke="#3a414a" stroke-width=".05" fill="#3a414a"/><path d="M767.16 242.05l-.4.06-.35-.9.62-.1z" fill="#3a414a"/><path stroke="#3a414a" stroke-width=".05" fill="#3a414a"/><path d="M886.2 223.13l-16.23 13.05-.6-.74 14.95-12.02-17.88-6.93.34-.9z" stroke="#3a414a" stroke-width=".05" fill="#3a414a"/><g><use xlink:href="#u" transform="matrix(1,0,0,1,799.3945195106976,227.01375760932712) translate(0 8.61111111111111)"/></g><path d="M660.5 348v-27.74a6 6 0 0 1 6-6H714a6 6 0 0 0 6-6V294.5" stroke="#3a414a" fill="none"/><path d="M660.96 348.54l-.45-.03-.5.02V348h.96z" stroke="#3a414a" stroke-width=".05" fill="#3a414a"/><path d="M720 281l7.5 13h-15z" stroke="#3a414a" fill="#3a414a"/><path d="M776 348v-27.74a6 6 0 0 0-6-6h-44a6 6 0 0 1-6-6V294.5" stroke="#3a414a" fill="none"/><path d="M776.47 348.54l-.45-.03-.5.02V348h.95z" stroke="#3a414a" stroke-width=".05" fill="#3a414a"/><path d="M720 281l7.5 13h-15z" stroke="#3a414a" fill="#3a414a"/><defs><path d="M784 20c-382 0-662-292-662-764 0-473 280-766 662-766s660 293 660 766c0 472-278 764-660 764zm0-176c266 0 475-207 475-588 0-383-209-590-475-590-268 0-477 208-477 590 0 380 209 588 477 588" id="w"/><path d="M338-670V0H158v-1118h173l1 207c72-158 192-221 342-221 226 0 378 139 378 422V0H872v-695c0-172-96-275-252-275-161 0-282 109-282 300" id="x"/><path d="M338-1490V0H158v-1490h180" id="y"/><path d="M158 0v-1118h180V0H158zm91-1301c-68 0-125-53-125-119s57-119 125-119c69 0 126 53 126 119s-57 119-126 119" id="z"/><path d="M628 24c-324 0-524-230-524-574 0-343 198-582 503-582 237 0 487 146 487 559v75H286c9 234 145 362 343 362 132 0 231-58 273-172l174 48C1024-91 857 24 628 24zM287-650h624c-17-190-120-322-304-322-192 0-309 151-320 322" id="A"/><g id="a"><use transform="matrix(0.010850694444444444,0,0,0.010850694444444444,0,0)" xlink:href="#w"/><use transform="matrix(0.010850694444444444,0,0,0.010850694444444444,16.9921875,0)" xlink:href="#x"/><use transform="matrix(0.010850694444444444,0,0,0.010850694444444444,30.121527777777775,0)" xlink:href="#y"/><use transform="matrix(0.010850694444444444,0,0,0.010850694444444444,35.50347222222222,0)" xlink:href="#z"/><use transform="matrix(0.010850694444444444,0,0,0.010850694444444444,40.885416666666664,0)" xlink:href="#x"/><use transform="matrix(0.010850694444444444,0,0,0.010850694444444444,54.01475694444444,0)" xlink:href="#A"/></g><path d="M180 0v-1490h528c311 0 458 177 458 395 0 191-114 278-244 313v14c139 9 302 137 302 371 0 225-148 397-499 397H180zm190-168h350c232 0 321-102 321-231 0-149-120-277-311-277H370v508zm0-668h328c160 0 286-101 286-255 0-129-87-231-280-231H370v486" id="B"/><path d="M471 26C259 26 90-98 90-318c0-256 228-303 435-329 202-27 287-16 287-108 0-139-79-219-234-219-161 0-248 86-283 164l-173-57c86-203 278-265 451-265 150 0 419 46 419 395V0H815v-152h-12C765-73 660 26 471 26zm31-159c199 0 310-134 310-271v-155c-30 35-226 55-295 64-131 17-246 59-246 186 0 116 97 176 231 176" id="C"/><path d="M158 0v-1490h180v865h22l478-493h223L593-638 1096 0H865L456-523 338-412V0H158" id="D"/><g id="b"><use transform="matrix(0.010850694444444444,0,0,0.010850694444444444,0,0)" xlink:href="#B"/><use transform="matrix(0.010850694444444444,0,0,0.010850694444444444,14.539930555555555,0)" xlink:href="#C"/><use transform="matrix(0.010850694444444444,0,0,0.010850694444444444,27.018229166666664,0)" xlink:href="#x"/><use transform="matrix(0.010850694444444444,0,0,0.010850694444444444,40.14756944444444,0)" xlink:href="#D"/></g><path d="M763 24c-353 0-583-224-583-531v-983h190v968c0 214 149 370 393 370 243 0 391-156 391-370v-968h190v983c0 307-230 531-581 531" id="E"/><path d="M538 24C308 24 148-78 108-271l171-41c32 123 123 178 257 178 156 0 256-77 256-169 0-77-54-128-164-154l-186-44c-203-48-300-148-300-305 0-192 176-326 414-326 230 0 351 112 402 269l-163 42c-31-80-94-158-238-158-133 0-233 69-233 162 0 83 57 129 188 160l169 40c203 48 298 149 298 302 0 196-179 339-441 339" id="F"/><path d="M158 0v-1118h174v172h12c41-113 157-188 290-188 26 0 70 2 91 3v181c-11-2-60-10-108-10-161 0-279 109-279 260V0H158" id="G"/><g id="c"><use transform="matrix(0.010850694444444444,0,0,0.010850694444444444,0,0)" xlink:href="#E"/><use transform="matrix(0.010850694444444444,0,0,0.010850694444444444,16.536458333333332,0)" xlink:href="#F"/><use transform="matrix(0.010850694444444444,0,0,0.010850694444444444,28.266059027777775,0)" xlink:href="#A"/><use transform="matrix(0.010850694444444444,0,0,0.010850694444444444,41.22178819444444,0)" xlink:href="#G"/></g><path d="M657 26c-323 0-524-166-541-416h195c15 169 171 246 346 246 202 0 356-106 356-265 5-203-294-238-475-293-239-73-380-191-380-389 0-252 224-419 512-419 294 0 499 171 508 396H992c-17-145-151-228-328-228-193 0-321 102-321 242 0 156 175 211 284 241l149 41c160 44 422 134 422 412 0 244-197 432-541 432" id="H"/><path d="M611 442c-248 0-391-105-460-228l146-94c47 65 117 165 314 165 178 0 307-82 307-266v-224h-17C863-141 792-18 576-18c-268 0-472-195-472-546 0-346 197-568 476-568 216 0 288 133 326 193h17v-179h175V29c0 289-215 413-487 413zm-5-620c203 0 314-146 314-390 0-237-108-403-314-403-213 0-319 180-319 403 0 230 109 390 319 390" id="I"/><g id="d"><use transform="matrix(0.008636934673366835,0,0,0.008636934673366835,0,0)" xlink:href="#H"/><use transform="matrix(0.008636934673366835,0,0,0.008636934673366835,11.348932160804022,0)" xlink:href="#z"/><use transform="matrix(0.008636934673366835,0,0,0.008636934673366835,15.632851758793972,0)" xlink:href="#I"/><use transform="matrix(0.008636934673366835,0,0,0.008636934673366835,26.48084170854272,0)" xlink:href="#x"/></g><g id="e"><use transform="matrix(0.008636934673366835,0,0,0.008636934673366835,0,0)" xlink:href="#z"/><use transform="matrix(0.008636934673366835,0,0,0.008636934673366835,4.28391959798995,0)" xlink:href="#x"/></g><g id="f"><use transform="matrix(0.010850694444444444,0,0,0.010850694444444444,0,0)" xlink:href="#B"/><use transform="matrix(0.010850694444444444,0,0,0.010850694444444444,14.539930555555555,0)" xlink:href="#C"/><use transform="matrix(0.010850694444444444,0,0,0.010850694444444444,27.018229166666664,0)" xlink:href="#x"/><use transform="matrix(0.010850694444444444,0,0,0.010850694444444444,40.14756944444444,0)" xlink:href="#D"/></g><path d="M180 0v-1490h270l367 940c28 72 75 218 110 339 35-117 81-264 110-339l362-940h271V0h-187c2-448-5-837 7-1287-157 497-311 829-483 1287H842C666-458 514-784 354-1284c12 438 5 843 7 1284H180" id="J"/><g id="g"><use transform="matrix(0.005899599542334097,0,0,0.005899599542334097,0,0)" xlink:href="#J"/><use transform="matrix(0.005899599542334097,0,0,0.005899599542334097,10.91425915331808,0)" xlink:href="#C"/><use transform="matrix(0.005899599542334097,0,0,0.005899599542334097,17.69879862700229,0)" xlink:href="#D"/><use transform="matrix(0.005899599542334097,0,0,0.005899599542334097,24.058566933638446,0)" xlink:href="#A"/></g><path d="M158 418v-1536h174v179h20c37-59 106-193 324-193 279 0 474 222 474 576 0 356-194 580-473 580-213 0-288-135-325-197h-14v591H158zm492-555c209 0 317-186 317-421 0-232-105-413-317-413-206 0-314 166-314 413 0 249 111 421 314 421" id="K"/><path d="M140 405l46-156c120 36 205 19 263-150l32-93L54-1118h197c107 313 237 620 324 950 87-331 219-637 326-950h196L606 167c-68 178-176 259-334 259-64 0-113-12-132-21" id="L"/><path d="M158 0v-1118h175l1 205c55-151 181-225 313-225 147 0 245 90 285 228 53-141 190-228 352-228 194 0 352 125 352 384V0h-181v-749c0-161-105-225-225-225-151 0-243 103-243 244V0H807v-767c0-124-93-207-219-207-131 0-250 92-250 270V0H158" id="M"/><path d="M598-1118v154H368v674c0 100 37 144 132 144 23 0 62-6 92-12L629-6c-37 13-88 20-134 20-193 0-307-107-307-290v-688H20v-154h168v-266h180v266h230" id="N"/><g id="h"><use transform="matrix(0.005899599542334097,0,0,0.005899599542334097,0,0)" xlink:href="#K"/><use transform="matrix(0.005899599542334097,0,0,0.005899599542334097,7.516089816933638,0)" xlink:href="#C"/><use transform="matrix(0.005899599542334097,0,0,0.005899599542334097,14.123641304347828,0)" xlink:href="#L"/><use transform="matrix(0.005899599542334097,0,0,0.005899599542334097,20.914080377574372,0)" xlink:href="#M"/><use transform="matrix(0.005899599542334097,0,0,0.005899599542334097,31.497961956521745,0)" xlink:href="#A"/><use transform="matrix(0.005899599542334097,0,0,0.005899599542334097,38.542083810068654,0)" xlink:href="#x"/><use transform="matrix(0.005899599542334097,0,0,0.005899599542334097,45.68059925629291,0)" xlink:href="#N"/></g><path d="M613 24c-304 0-509-231-509-576 0-350 205-580 509-580 216 0 392 114 453 309l-173 49c-33-115-133-197-280-197-223 0-326 196-326 419 0 220 103 415 326 415 150 0 252-85 285-206l172 49C1010-95 832 24 613 24" id="O"/><path d="M338-670V0H158v-1490h180v566c73-149 190-208 336-208 226 0 379 139 379 422V0H872v-695c0-172-96-275-252-275-161 0-282 109-282 300" id="P"/><g id="i"><use transform="matrix(0.005899599542334097,0,0,0.005899599542334097,0,0)" xlink:href="#O"/><use transform="matrix(0.005899599542334097,0,0,0.005899599542334097,6.9025314645308935,0)" xlink:href="#P"/><use transform="matrix(0.005899599542334097,0,0,0.005899599542334097,14.046946510297484,0)" xlink:href="#A"/><use transform="matrix(0.005899599542334097,0,0,0.005899599542334097,21.091068363844393,0)" xlink:href="#O"/><use transform="matrix(0.005899599542334097,0,0,0.005899599542334097,27.99359982837529,0)" xlink:href="#D"/></g><path d="M677 24c-213 0-288-135-325-197h-20V0H158v-1490h180v551h14c37-59 106-193 324-193 279 0 474 222 474 576 0 356-194 580-473 580zm-27-161c209 0 317-186 317-421 0-232-105-413-317-413-206 0-314 166-314 413 0 249 111 421 314 421" id="Q"/><g id="j"><use transform="matrix(0.005899599542334097,0,0,0.005899599542334097,0,0)" xlink:href="#Q"/><use transform="matrix(0.005899599542334097,0,0,0.005899599542334097,7.516089816933638,0)" xlink:href="#C"/><use transform="matrix(0.005899599542334097,0,0,0.005899599542334097,14.30062929061785,0)" xlink:href="#y"/><use transform="matrix(0.005899599542334097,0,0,0.005899599542334097,17.226830663615566,0)" xlink:href="#C"/><use transform="matrix(0.005899599542334097,0,0,0.005899599542334097,24.011370137299778,0)" xlink:href="#x"/><use transform="matrix(0.005899599542334097,0,0,0.005899599542334097,31.149885583524032,0)" xlink:href="#O"/><use transform="matrix(0.005899599542334097,0,0,0.005899599542334097,38.05241704805493,0)" xlink:href="#A"/></g><path d="M98-1322v-168h1126v168H757V0H567v-1322H98" id="R"/><path d="M678-1118v154H420V0H240v-964H20v-154h220v-149c0-194 155-293 318-293 85 0 141 18 168 30l-50 154c-19-6-47-17-97-17-111 0-159 58-159 166v109h258" id="S"/><g id="k"><use transform="matrix(0.005899599542334097,0,0,0.005899599542334097,0,0)" xlink:href="#R"/><use transform="matrix(0.005899599542334097,0,0,0.005899599542334097,7.114917048054921,0)" xlink:href="#G"/><use transform="matrix(0.005899599542334097,0,0,0.005899599542334097,11.663508295194509,0)" xlink:href="#C"/><use transform="matrix(0.005899599542334097,0,0,0.005899599542334097,18.448047768878723,0)" xlink:href="#x"/><use transform="matrix(0.005899599542334097,0,0,0.005899599542334097,25.58656321510298,0)" xlink:href="#F"/><use transform="matrix(0.005899599542334097,0,0,0.005899599542334097,31.96403032036613,0)" xlink:href="#S"/><use transform="matrix(0.005899599542334097,0,0,0.005899599542334097,36.08195080091534,0)" xlink:href="#A"/><use transform="matrix(0.005899599542334097,0,0,0.005899599542334097,43.12607265446225,0)" xlink:href="#G"/></g><path d="M537 14c-226 0-379-139-379-422v-710h180v695c0 172 97 275 253 275 160 0 281-109 281-300v-670h181V0H879v-209C806-46 684 14 537 14" id="T"/><path d="M577 24c-279 0-473-224-473-580 0-354 195-576 474-576 218 0 287 134 324 193h14v-551h180V0H922v-173h-20C865-111 790 24 577 24zm27-161c203 0 314-172 314-421 0-247-108-413-314-413-212 0-317 181-317 413 0 235 108 421 317 421" id="U"/><g id="l"><use transform="matrix(0.005899599542334097,0,0,0.005899599542334097,0,0)" xlink:href="#S"/><use transform="matrix(0.005899599542334097,0,0,0.005899599542334097,4.471896453089245,0)" xlink:href="#T"/><use transform="matrix(0.005899599542334097,0,0,0.005899599542334097,11.616311498855838,0)" xlink:href="#x"/><use transform="matrix(0.005899599542334097,0,0,0.005899599542334097,18.754826945080094,0)" xlink:href="#U"/><use transform="matrix(0.005899599542334097,0,0,0.005899599542334097,26.15292477116705,0)" xlink:href="#F"/></g><path d="M481 0L54-1118h197c107 314 236 620 325 951 87-331 217-637 324-951h197L670 0H481" id="V"/><g id="m"><use transform="matrix(0.007582957852248194,0,0,0.007582957852248194,0,0)" xlink:href="#V"/><use transform="matrix(0.007582957852248194,0,0,0.007582957852248194,8.424666173847744,0)" xlink:href="#A"/><use transform="matrix(0.007582957852248194,0,0,0.007582957852248194,17.478717849432087,0)" xlink:href="#G"/><use transform="matrix(0.007582957852248194,0,0,0.007582957852248194,23.56783300478739,0)" xlink:href="#z"/><use transform="matrix(0.007582957852248194,0,0,0.007582957852248194,27.32898009950249,0)" xlink:href="#S"/><use transform="matrix(0.007582957852248194,0,0,0.007582957852248194,33.076862151506624,0)" xlink:href="#L"/></g><g id="n"><use transform="matrix(0.005544354838709678,0,0,0.005544354838709678,0,0)" xlink:href="#V"/><use transform="matrix(0.005544354838709678,0,0,0.005544354838709678,6.159778225806453,0)" xlink:href="#A"/><use transform="matrix(0.005544354838709678,0,0,0.005544354838709678,12.779737903225808,0)" xlink:href="#G"/><use transform="matrix(0.005544354838709678,0,0,0.005544354838709678,17.23185483870968,0)" xlink:href="#z"/><use transform="matrix(0.005544354838709678,0,0,0.005544354838709678,19.98185483870968,0)" xlink:href="#S"/><use transform="matrix(0.005544354838709678,0,0,0.005544354838709678,24.184475806451616,0)" xlink:href="#L"/></g><g id="o"><use transform="matrix(0.005544354838709678,0,0,0.005544354838709678,0,0)" xlink:href="#K"/><use transform="matrix(0.005544354838709678,0,0,0.005544354838709678,7.063508064516129,0)" xlink:href="#C"/><use transform="matrix(0.005544354838709678,0,0,0.005544354838709678,13.439516129032262,0)" xlink:href="#F"/><use transform="matrix(0.005544354838709678,0,0,0.005544354838709678,19.432963709677423,0)" xlink:href="#F"/></g><path d="M409 0L70-1118h191c89 329 165 560 243 925 75-353 154-601 240-925h192c85 325 161 564 235 922 77-354 157-598 244-922h191L1267 0h-179c-86-307-176-590-250-913C763-588 675-308 588 0H409" id="W"/><path d="M613 24c-304 0-509-231-509-576 0-350 205-580 509-580 305 0 511 230 511 580 0 345-206 576-511 576zm0-161c226 0 329-195 329-415 0-222-103-419-329-419-223 0-326 196-326 419 0 220 103 415 326 415" id="X"/><g id="p"><use transform="matrix(0.005544354838709678,0,0,0.005544354838709678,0,0)" xlink:href="#W"/><use transform="matrix(0.005544354838709678,0,0,0.005544354838709678,9.29233870967742,0)" xlink:href="#G"/><use transform="matrix(0.005544354838709678,0,0,0.005544354838709678,13.378528225806452,0)" xlink:href="#X"/><use transform="matrix(0.005544354838709678,0,0,0.005544354838709678,20.186995967741936,0)" xlink:href="#x"/><use transform="matrix(0.005544354838709678,0,0,0.005544354838709678,26.895665322580648,0)" xlink:href="#I"/></g><g id="q"><use transform="matrix(0.004286159600997506,0,0,0.004286159600997506,0,0)" xlink:href="#K"/><use transform="matrix(0.004286159600997506,0,0,0.004286159600997506,5.460567331670823,0)" xlink:href="#C"/><use transform="matrix(0.004286159600997506,0,0,0.004286159600997506,10.26106608478803,0)" xlink:href="#L"/></g><g id="r"><use transform="matrix(0.004286159600997506,0,0,0.004286159600997506,0,0)" xlink:href="#S"/><use transform="matrix(0.004286159600997506,0,0,0.004286159600997506,3.24890897755611,0)" xlink:href="#G"/><use transform="matrix(0.004286159600997506,0,0,0.004286159600997506,6.407808603491272,0)" xlink:href="#X"/><use transform="matrix(0.004286159600997506,0,0,0.004286159600997506,11.67121259351621,0)" xlink:href="#M"/></g><g id="s"><use transform="matrix(0.004286159600997506,0,0,0.004286159600997506,0,0)" xlink:href="#F"/><use transform="matrix(0.004286159600997506,0,0,0.004286159600997506,4.633338528678305,0)" xlink:href="#C"/><use transform="matrix(0.004286159600997506,0,0,0.004286159600997506,9.433837281795512,0)" xlink:href="#V"/><use transform="matrix(0.004286159600997506,0,0,0.004286159600997506,14.367206982543642,0)" xlink:href="#z"/><use transform="matrix(0.004286159600997506,0,0,0.004286159600997506,16.493142144638405,0)" xlink:href="#x"/><use transform="matrix(0.004286159600997506,0,0,0.004286159600997506,21.679395261845386,0)" xlink:href="#I"/><use transform="matrix(0.004286159600997506,0,0,0.004286159600997506,27.062811720698257,0)" xlink:href="#F"/></g><g id="t"><use transform="matrix(0.004286159600997506,0,0,0.004286159600997506,0,0)" xlink:href="#O"/><use transform="matrix(0.004286159600997506,0,0,0.004286159600997506,5.014806733167083,0)" xlink:href="#P"/><use transform="matrix(0.004286159600997506,0,0,0.004286159600997506,10.205346009975061,0)" xlink:href="#A"/><use transform="matrix(0.004286159600997506,0,0,0.004286159600997506,15.323020573566083,0)" xlink:href="#O"/><use transform="matrix(0.004286159600997506,0,0,0.004286159600997506,20.337827306733168,0)" xlink:href="#D"/><use transform="matrix(0.004286159600997506,0,0,0.004286159600997506,25.155470698254362,0)" xlink:href="#z"/><use transform="matrix(0.004286159600997506,0,0,0.004286159600997506,27.281405860349125,0)" xlink:href="#x"/><use transform="matrix(0.004286159600997506,0,0,0.004286159600997506,32.467658977556106,0)" xlink:href="#I"/><use transform="matrix(0.004286159600997506,0,0,0.004286159600997506,37.851075436408976,0)" xlink:href="#F"/></g><path fill="#333" d="M174-520v-126l944-476v196L406-588v12l712 338v194" id="Y"/><path fill="#333" d="M158 0v-1118h180V0H158zm91-1301c-68 0-125-53-125-119s57-119 125-119c69 0 126 53 126 119s-57 119-126 119" id="Z"/><path fill="#333" d="M338-670V0H158v-1118h173l1 207c72-158 192-221 342-221 226 0 378 139 378 422V0H872v-695c0-172-96-275-252-275-161 0-282 109-282 300" id="aa"/><path fill="#333" d="M613 24c-304 0-509-231-509-576 0-350 205-580 509-580 216 0 392 114 453 309l-173 49c-33-115-133-197-280-197-223 0-326 196-326 419 0 220 103 415 326 415 150 0 252-85 285-206l172 49C1010-95 832 24 613 24" id="ab"/><path fill="#333" d="M338-1490V0H158v-1490h180" id="ac"/><path fill="#333" d="M537 14c-226 0-379-139-379-422v-710h180v695c0 172 97 275 253 275 160 0 281-109 281-300v-670h181V0H879v-209C806-46 684 14 537 14" id="ad"/><path fill="#333" d="M577 24c-279 0-473-224-473-580 0-354 195-576 474-576 218 0 287 134 324 193h14v-551h180V0H922v-173h-20C865-111 790 24 577 24zm27-161c203 0 314-172 314-421 0-247-108-413-314-413-212 0-317 181-317 413 0 235 108 421 317 421" id="ae"/><path fill="#333" d="M628 24c-324 0-524-230-524-574 0-343 198-582 503-582 237 0 487 146 487 559v75H286c9 234 145 362 343 362 132 0 231-58 273-172l174 48C1024-91 857 24 628 24zM287-650h624c-17-190-120-322-304-322-192 0-309 151-320 322" id="af"/><path fill="#333" d="M1181-520L237-44v-194l712-338v-12L237-926v-196l944 476v126" id="ag"/><g id="u"><use transform="matrix(0.004340277777777778,0,0,0.004340277777777778,0,0)" xlink:href="#Y"/><use transform="matrix(0.004340277777777778,0,0,0.004340277777777778,5.881076388888889,0)" xlink:href="#Y"/><use transform="matrix(0.004340277777777778,0,0,0.004340277777777778,11.762152777777779,0)" xlink:href="#Z"/><use transform="matrix(0.004340277777777778,0,0,0.004340277777777778,13.914930555555555,0)" xlink:href="#aa"/><use transform="matrix(0.004340277777777778,0,0,0.004340277777777778,19.166666666666668,0)" xlink:href="#ab"/><use transform="matrix(0.004340277777777778,0,0,0.004340277777777778,24.244791666666668,0)" xlink:href="#ac"/><use transform="matrix(0.004340277777777778,0,0,0.004340277777777778,26.397569444444446,0)" xlink:href="#ad"/><use transform="matrix(0.004340277777777778,0,0,0.004340277777777778,31.653645833333336,0)" xlink:href="#ae"/><use transform="matrix(0.004340277777777778,0,0,0.004340277777777778,37.09635416666667,0)" xlink:href="#af"/><use transform="matrix(0.004340277777777778,0,0,0.004340277777777778,42.278645833333336,0)" xlink:href="#ag"/><use transform="matrix(0.004340277777777778,0,0,0.004340277777777778,48.159722222222236,0)" xlink:href="#ag"/></g><path fill="#333" d="M65 0l393-574-370-544h210c88 136 192 297 267 435 67-142 176-302 264-435h206L661-564 1053 0H844c-94-144-206-310-287-458C484-308 366-142 273 0H65" id="ah"/><path fill="#333" d="M598-1118v154H368v674c0 100 37 144 132 144 23 0 62-6 92-12L629-6c-37 13-88 20-134 20-193 0-307-107-307-290v-688H20v-154h168v-266h180v266h230" id="ai"/><g id="v"><use transform="matrix(0.004340277777777778,0,0,0.004340277777777778,0,0)" xlink:href="#Y"/><use transform="matrix(0.004340277777777778,0,0,0.004340277777777778,5.881076388888889,0)" xlink:href="#Y"/><use transform="matrix(0.004340277777777778,0,0,0.004340277777777778,11.762152777777779,0)" xlink:href="#af"/><use transform="matrix(0.004340277777777778,0,0,0.004340277777777778,16.744791666666668,0)" xlink:href="#ah"/><use transform="matrix(0.004340277777777778,0,0,0.004340277777777778,21.770833333333336,0)" xlink:href="#ai"/><use transform="matrix(0.004340277777777778,0,0,0.004340277777777778,24.59201388888889,0)" xlink:href="#af"/><use transform="matrix(0.004340277777777778,0,0,0.004340277777777778,29.774305555555557,0)" xlink:href="#aa"/><use transform="matrix(0.004340277777777778,0,0,0.004340277777777778,35.02604166666667,0)" xlink:href="#ae"/><use transform="matrix(0.004340277777777778,0,0,0.004340277777777778,40.46875000000001,0)" xlink:href="#ag"/><use transform="matrix(0.004340277777777778,0,0,0.004340277777777778,46.3498263888889,0)" xlink:href="#ag"/></g></defs></g></svg>